<svg width="20" height="20" viewBox="0 0 20 20" fill="none" xmlns="http://www.w3.org/2000/svg">
<path fill-rule="evenodd" clip-rule="evenodd" d="M9.99984 16.6669C13.6817 16.6669 16.6665 13.6821 16.6665 10.0002C16.6665 6.31831 13.6817 3.33354 9.99984 3.33354C6.31794 3.33354 3.33317 6.31831 3.33317 10.0002C3.33317 13.6821 6.31794 16.6669 9.99984 16.6669ZM9.99984 18.3335C14.6022 18.3335 18.3332 14.6026 18.3332 10.0002C18.3332 5.39783 14.6022 1.66687 9.99984 1.66687C5.39746 1.66687 1.6665 5.39783 1.6665 10.0002C1.6665 14.6026 5.39746 18.3335 9.99984 18.3335Z" fill="#574964"/>
<path fill-rule="evenodd" clip-rule="evenodd" d="M9.99984 5.83362C9.5396 5.83362 9.1665 6.20671 9.1665 6.66695C9.1665 7.12719 9.5396 7.50028 9.99984 7.50028C10.4601 7.50028 10.8332 7.12719 10.8332 6.66695C10.8332 6.20671 10.4601 5.83362 9.99984 5.83362ZM9.99984 9.16695C9.5396 9.16695 9.1665 9.54005 9.1665 10.0003V13.3336C9.1665 13.7939 9.5396 14.167 9.99984 14.167C10.4601 14.167 10.8332 13.7939 10.8332 13.3336V10.0003C10.8332 9.54005 10.4601 9.16695 9.99984 9.16695Z" fill="#574964"/>
</svg>
