<?xml version="1.0" encoding="utf-8"?>
<!-- Svg Vector Icons : http://www.onlinewebfonts.com/icon -->
<!DOCTYPE svg PUBLIC "-//W3C//DTD SVG 1.1//EN" "http://www.w3.org/Graphics/SVG/1.1/DTD/svg11.dtd">
<svg version="1.1" xmlns="http://www.w3.org/2000/svg" xmlns:xlink="http://www.w3.org/1999/xlink" x="0px" y="0px" viewBox="0 0 256 256" enable-background="new 0 0 256 256" xml:space="preserve">
<metadata> Svg Vector Icons : http://www.onlinewebfonts.com/icon </metadata>
<g><g><g><path fill="#000000" d="M148,65.4h-1.3c-7.3,0-13.3,5.9-13.3,13.3v19c-3.9-0.6-7.7-0.5-11.5,0.1v-19c0-7.3-6-13.3-13.3-13.3h-1.3c-7.3,0-13.3,5.9-13.3,13.3v38.5c-3.3,5.8-5,12.4-5,19c0,21.4,17.4,38.9,38.9,38.9c21.4,0,38.9-17.4,38.9-38.9c0-7.1-1.9-14-5.6-20.1V78.7C161.3,71.3,155.3,65.4,148,65.4z M128,167.1c-17.1,0-31-13.9-31-31c0-5.6,1.5-11.1,4.4-15.9l0.6-0.9V78.7c0-3,2.4-5.4,5.4-5.4h1.3c3,0,5.4,2.4,5.4,5.4v29.2l5-1.5c5.6-1.7,11.4-1.8,17.2-0.1l5,1.4v-29c0-3,2.4-5.4,5.4-5.4h1.3c3,0,5.4,2.4,5.4,5.4v39.6l0.6,1c3.3,5,5,10.9,5,16.8C159.1,153.2,145.1,167.1,128,167.1z"/><path fill="#000000" d="M140.2,142.3c-1.6,0-2.9,1.3-2.9,2.9l0,0c0,1.7-1.4,3.1-3.1,3.1s-3.1-1.4-3.1-3.1l0,0c0-0.2-0.1-0.4-0.1-0.6c0.7-0.7,1.2-1.8,1.2-2.9c0-2.2-1.8-2.3-4-2.3c-2.2,0-4,0-4,2.3c0,1.1,0.5,2.1,1.2,2.9c0,0.2-0.1,0.4-0.1,0.6l0,0c0,1.7-1.4,3.1-3.1,3.1s-3.1-1.4-3.1-3.1l0,0c0-1.6-1.3-2.9-2.9-2.9c-1.6,0-2.9,1.3-2.9,2.9c0,5,4,9,9,9c2.3,0,4.5-0.9,6.1-2.4c1.6,1.5,3.7,2.4,6.1,2.4c5,0,9-4,9-9C143.1,143.7,141.8,142.3,140.2,142.3z"/><path fill="#000000" d="M113.2,131.5c-3.4,0-3.4,5.2,0,5.2C116.5,136.8,116.5,131.5,113.2,131.5z"/><path fill="#000000" d="M141.2,131.5c-3.4,0-3.4,5.2,0,5.2C144.6,136.8,144.6,131.5,141.2,131.5z"/><path fill="#000000" d="M159,10c-2.9,0-4.6,0.2-4.9,0.3l-4.5,0.7l-0.5,4.6c-2.2,21.1-17.7,22.2-20.9,22.2h-0.5c-3.1,0-18.6-1.1-20.8-22.2l-0.5-4.6l-4.5-0.7c-0.3,0-2-0.3-4.9-0.3c-9.9,0-36.1,2.9-64.4,29.6c-3.6,3.4-4.3,9.3-1.5,13.5L46.9,77c2.1,3.3,6.1,5,10,4.4c-5.7,25.8-15.8,87.7-0.2,156.2c1.1,4.8,5.6,8.4,10.5,8.4h44.1c4.1,0,8.8-2.5,11-6l5.7-9l5.7,8.9c2.2,3.5,6.8,6,11,6h44.1c4.9,0,9.5-3.6,10.5-8.4c15.6-68.4,5.5-130.4-0.3-156.2c0.5,0.1,1,0.1,1.5,0.1c3.4,0,6.6-1.7,8.5-4.5l15.8-23.9c2.8-4.2,2.1-10.1-1.5-13.5C195.1,12.9,169,10,159,10z M200.2,69.3l-19.6-10.9l4.1,13.8c0.2,0.8,22.5,77.2,3.4,162h-43.3c-0.3,0-1-0.4-1.1-0.6l-8.5-13.5c-1.7-2.6-4.2-4.1-7.1-4.1c-2.8,0-5.4,1.5-7.1,4.1l-8.5,13.4c-0.2,0.2-0.8,0.6-1.1,0.7H68c-19.1-84.7,3.2-161.3,3.4-162l4.1-13.8L55.9,69.3L41.5,47.4C65.5,25.2,86.9,22,96,21.8c4.5,21.7,21.7,27.6,31.7,27.6h0.6c10.1,0,27.3-6,31.7-27.6c9.1,0.2,30.6,3.4,54.5,25.6L200.2,69.3z"/></g><g></g><g></g><g></g><g></g><g></g><g></g><g></g><g></g><g></g><g></g><g></g><g></g><g></g><g></g><g></g></g></g>
</svg>