<svg width="20" height="20" viewBox="0 0 20 20" fill="none" xmlns="http://www.w3.org/2000/svg">
<path d="M16.6434 4.84738L15.9517 5.13749V5.13749L16.6434 4.84738ZM16.0157 5.29006C16.176 5.67204 16.6155 5.8518 16.9975 5.69158C17.3794 5.53136 17.5592 5.09183 17.399 4.70985L16.0157 5.29006ZM14.0287 1.38694C13.6441 1.2331 13.2076 1.42016 13.0538 1.80475C12.9 2.18934 13.087 2.62581 13.4716 2.77965L14.0287 1.38694ZM13.8895 2.13903L13.611 2.83539L13.8895 2.13903ZM3.3975 4.84738L4.08912 5.13749V5.13749L3.3975 4.84738ZM2.64188 4.70985C2.48165 5.09183 2.66142 5.53136 3.04339 5.69158C3.42536 5.8518 3.8649 5.67204 4.02512 5.29006L2.64188 4.70985ZM6.56924 2.77965C6.95383 2.62582 7.14089 2.18934 6.98706 1.80475C6.83322 1.42016 6.39674 1.2331 6.01216 1.38694L6.56924 2.77965ZM6.15135 2.13903L5.8728 1.44268L5.8728 1.44268L6.15135 2.13903ZM15.1998 7.47928L14.4546 7.56386L15.1998 7.47928ZM15.5724 10.7627L16.3176 10.6781L15.5724 10.7627ZM4.42789 10.7627L3.68268 10.6781L4.42789 10.7627ZM4.80055 7.47928L5.54577 7.56386L4.80055 7.47928ZM3.70665 12.3934L3.13554 11.9073H3.13554L3.70665 12.3934ZM16.2937 12.3934L15.7226 12.8795L16.2937 12.3934ZM11.8918 3.64468H11.1418C11.1418 3.96526 11.3455 4.25039 11.6488 4.35424L11.8918 3.64468ZM8.10854 3.64468L8.35149 4.35424C8.65478 4.25039 8.85854 3.96526 8.85854 3.64468H8.10854ZM13.2025 16.9298C13.3478 16.542 13.1512 16.1097 12.7634 15.9643C12.3755 15.819 11.9432 16.0156 11.7979 16.4034L13.2025 16.9298ZM8.20246 16.4034C8.0571 16.0156 7.62483 15.819 7.23696 15.9643C6.84909 16.1097 6.6525 16.542 6.79786 16.9298L8.20246 16.4034ZM15.9517 5.13749L16.0157 5.29006L17.399 4.70985L17.335 4.55728L15.9517 5.13749ZM13.4716 2.77965L13.611 2.83539L14.1681 1.44268L14.0287 1.38694L13.4716 2.77965ZM17.335 4.55728C16.7392 3.13679 15.5983 2.01476 14.1681 1.44268L13.611 2.83539C14.6681 3.25824 15.5113 4.08756 15.9517 5.13749L17.335 4.55728ZM2.70588 4.55728L2.64188 4.70985L4.02512 5.29006L4.08912 5.13749L2.70588 4.55728ZM6.01216 1.38694L5.8728 1.44268L6.42989 2.83539L6.56924 2.77965L6.01216 1.38694ZM4.08912 5.13749C4.52952 4.08756 5.37277 3.25824 6.42989 2.83539L5.8728 1.44268C4.44258 2.01476 3.30171 3.13679 2.70588 4.55728L4.08912 5.13749ZM14.8145 14.25H5.18584V15.75H14.8145V14.25ZM14.4546 7.56386L14.8272 10.8473L16.3176 10.6781L15.945 7.3947L14.4546 7.56386ZM5.17311 10.8473L5.54577 7.56386L4.05533 7.3947L3.68268 10.6781L5.17311 10.8473ZM4.27776 12.8795C4.77413 12.2964 5.08832 11.5943 5.17311 10.8473L3.68268 10.6781C3.63323 11.1138 3.4486 11.5395 3.13554 11.9073L4.27776 12.8795ZM14.8272 10.8473C14.912 11.5943 15.2262 12.2964 15.7226 12.8795L16.8648 11.9073C16.5517 11.5395 16.3671 11.1138 16.3176 10.6781L14.8272 10.8473ZM5.18584 14.25C4.68317 14.25 4.33949 14.0026 4.18434 13.7292C4.0366 13.4689 4.03742 13.1619 4.27776 12.8795L3.13554 11.9073C2.46169 12.6989 2.44028 13.6951 2.87977 14.4696C3.31186 15.231 4.16487 15.75 5.18584 15.75V14.25ZM14.8145 15.75C15.8355 15.75 16.6885 15.231 17.1206 14.4696C17.56 13.6951 17.5386 12.6989 16.8648 11.9073L15.7226 12.8795C15.9629 13.1619 15.9637 13.4689 15.816 13.7292C15.6608 14.0026 15.3172 14.25 14.8145 14.25V15.75ZM12.6418 3.64468V3.55825H11.1418V3.64468H12.6418ZM15.945 7.3947C15.7059 5.28845 14.1453 3.62352 12.1347 2.93512L11.6488 4.35424C13.2089 4.88838 14.2917 6.12919 14.4546 7.56386L15.945 7.3947ZM8.85854 3.64468V3.55825H7.35854V3.64468H8.85854ZM5.54577 7.56386C5.7086 6.1292 6.79143 4.88838 8.35149 4.35424L7.8656 2.93512C5.855 3.62352 4.29439 5.28845 4.05533 7.3947L5.54577 7.56386ZM10.0002 2.41663C10.6307 2.41663 11.1418 2.92775 11.1418 3.55825H12.6418C12.6418 2.09932 11.4591 0.916626 10.0002 0.916626V2.41663ZM10.0002 0.916626C8.54124 0.916626 7.35854 2.09932 7.35854 3.55825H8.85854C8.85854 2.92775 9.36966 2.41663 10.0002 2.41663V0.916626ZM11.7979 16.4034C11.5479 17.0703 10.8539 17.5833 10.0002 17.5833V19.0833C11.4548 19.0833 12.7246 18.2049 13.2025 16.9298L11.7979 16.4034ZM10.0002 17.5833C9.14642 17.5833 8.4524 17.0703 8.20246 16.4034L6.79786 16.9298C7.27574 18.2049 8.54552 19.0833 10.0002 19.0833V17.5833Z" fill="#574964"/>
</svg>
