<svg width="33" height="33" viewBox="0 0 33 33" fill="none" xmlns="http://www.w3.org/2000/svg">
<path d="M11.75 2C11.75 2 13.5 5.5 17 5.5C20.5 5.5 22.25 2 22.25 2L31 3.75L29.25 10.75H25.75C25.75 10.75 27.5 14.25 27.5 16C27.5 17.5383 26.0738 20.249 25.75 23C25.2407 27.3312 25.75 30 25.75 30H8.25C8.25 30 8.75225 27.2542 8.25 23C7.90875 20.1125 6.5 17.4158 6.5 16C6.5 14.25 8.25 10.75 8.25 10.75H4.75L3 3.75L11.75 2Z" stroke="#574964" stroke-width="2" stroke-linecap="round" stroke-linejoin="round"/>
</svg>
